# xmcd
# 
# Track frame offsets:
#     150
#     6614
#     32287
#     54041
#     61236
#     88129
#     92729
#     115276
#     153877
# 
# Disc length: 2524
# 
# Revision: 6
# Processed by: cddbd v1.5.2PL0 Copyright (c) Steve Scherf et al.
# Submitted via: fre:ac v1.0.27
# 
DISCID=6309da09
DTITLE=Kate Bush - Aerial [CD2]  A Sky of Honey
DYEAR=2005
DGENRE=Alternative
TTITLE0=Prelude
TTITLE1=Prologue
TTITLE2=An Architect's Dream
TTITLE3=The Painter's Link
TTITLE4=Sunset
TTITLE5=Aerial Tal
TTITLE6=Somewhere in Between
TTITLE7=Nocturn
TTITLE8=Aerial
EXTD=Location:  - UPC: 094634396028 - Catalogue number: 0946 3 43960 2 8 - Label: EMI - ASIN: B000BEPLUE - Release Date: 2005 11 07 - Discogs: a85929,m28811,r559101 - MUSICBRAINZ_ALBUMID: f205627f-b70a-409d-adbe-66289b614e80 - AMG: MN0000855423,MW0000347992;
EXTT0=
EXTT1=
EXTT2=
EXTT3=
EXTT4=
EXTT5=
EXTT6=
EXTT7=
EXTT8=
PLAYORDER=
